<?xml version="1.0" standalone="no"?>
<!DOCTYPE svg PUBLIC "-//W3C//DTD SVG 20010904//EN"
 "http://www.w3.org/TR/2001/REC-SVG-20010904/DTD/svg10.dtd">
<svg version="1.0" xmlns="http://www.w3.org/2000/svg"
 width="1000.000000pt" height="1000.000000pt" viewBox="0 0 1000.000000 1000.000000"
 preserveAspectRatio="xMidYMid meet">

<g transform="translate(0.000000,1000.000000) scale(0.100000,-0.100000)"
fill="#000000" stroke="none">
<path d="M4685 9524 c-304 -20 -769 -103 -1082 -195 -366 -107 -832 -311
-1138 -497 -71 -44 -131 -79 -133 -77 -7 6 74 294 119 425 67 193 69 211 31
250 -47 47 -76 41 -231 -46 -1040 -583 -1598 -1375 -1628 -2314 l-6 -175 -39
-68 c-57 -98 -115 -232 -201 -467 -220 -600 -282 -931 -282 -1500 1 -493 56
-846 202 -1295 131 -403 284 -715 547 -1115 407 -617 790 -1017 1366 -1425
215 -152 580 -350 885 -479 446 -189 994 -323 1500 -367 182 -16 706 -16 860
0 671 69 1221 227 1805 517 663 330 1216 789 1687 1404 291 380 595 969 756
1465 146 449 201 802 202 1295 0 569 -62 900 -282 1500 -86 235 -144 369 -201
467 l-39 68 -6 175 c-25 759 -386 1413 -1080 1953 -230 180 -652 437 -716 437
-23 0 -41 -9 -63 -30 -38 -39 -36 -59 26 -235 48 -138 120 -390 114 -404 -2
-5 -61 25 -133 66 -624 357 -1288 574 -1985 649 -139 15 -715 27 -855 18z
m620 -354 c620 -42 1142 -162 1630 -375 133 -58 497 -241 687 -347 l106 -59 7
-97 c17 -215 -12 -497 -70 -696 -54 -182 -158 -383 -277 -533 -72 -91 -82
-119 -60 -165 14 -26 37 -43 116 -81 75 -38 114 -65 165 -115 81 -80 115 -146
135 -261 25 -145 52 -155 416 -156 206 0 249 3 348 23 260 53 501 164 680 315
24 21 47 37 52 37 7 0 69 -140 128 -290 103 -262 195 -634 249 -1010 25 -180
26 -822 0 -1025 -61 -483 -214 -989 -428 -1418 -178 -355 -344 -590 -637 -901
-516 -547 -1191 -973 -1938 -1221 -920 -306 -1898 -346 -2833 -114 -646 159
-1230 432 -1736 809 -547 407 -880 798 -1175 1385 -168 331 -260 572 -338 880
-91 356 -131 636 -139 970 -13 541 53 982 229 1515 49 149 140 376 158 394 5
5 27 -6 52 -27 177 -144 406 -248 660 -299 99 -20 142 -23 348 -23 364 1 391
11 416 156 20 115 54 181 135 261 51 50 90 77 165 115 79 38 102 55 116 81 22
46 12 74 -60 165 -119 150 -223 351 -277 533 -58 199 -87 481 -70 696 l7 97
106 59 c345 191 698 360 937 448 569 210 1346 317 1990 274z"/>
<path d="M3249 5925 c-48 -26 -59 -91 -25 -137 7 -10 82 -55 167 -101 274
-148 463 -275 584 -392 125 -122 155 -196 155 -393 0 -123 0 -124 29 -153 48
-47 116 -38 146 21 18 35 21 230 4 378 -20 187 -103 512 -146 579 -31 47 -106
50 -145 7 -29 -33 -30 -65 -3 -143 14 -41 25 -78 25 -83 0 -5 -26 11 -57 35
-193 147 -626 398 -685 397 -13 -1 -35 -7 -49 -15z"/>
<path d="M6560 5879 c-212 -112 -408 -233 -542 -336 -32 -24 -58 -40 -58 -35
0 5 11 42 25 83 27 78 26 110 -3 143 -39 43 -114 40 -145 -7 -43 -67 -126
-392 -146 -579 -17 -148 -14 -343 4 -378 30 -59 98 -68 146 -21 29 29 29 30
29 153 0 197 30 271 155 393 121 117 310 244 584 392 85 46 160 91 167 101 48
64 3 152 -78 152 -13 0 -75 -28 -138 -61z"/>
<path d="M2160 5536 c-277 -50 -512 -165 -755 -368 -124 -103 -322 -310 -433
-453 -93 -120 -263 -369 -341 -499 -58 -98 -54 -153 14 -182 31 -13 41 -11
124 16 131 43 204 38 329 -22 48 -22 96 -61 191 -152 137 -131 418 -380 466
-413 362 -247 576 -352 870 -428 207 -53 324 -68 545 -68 264 0 490 36 738
116 l100 32 12 -33 c11 -32 53 -62 85 -62 28 0 71 28 82 53 31 67 23 478 -13
727 -54 372 -184 721 -361 970 -243 340 -619 596 -1075 734 -113 34 -126 36
-310 41 -138 3 -214 1 -268 -9z m608 -433 c33 -20 54 -44 74 -82 l28 -53 0
-640 c0 -478 -3 -651 -12 -682 -7 -24 -32 -60 -58 -87 -87 -90 -208 -91 -296
-3 -71 71 -69 45 -69 769 l0 650 22 42 c26 47 76 91 125 110 51 20 133 9 186
-24z"/>
<path d="M7435 5540 c-158 -13 -467 -129 -678 -253 -218 -129 -429 -321 -570
-517 -177 -249 -307 -598 -361 -970 -38 -259 -44 -667 -11 -730 13 -26 52 -50
81 -50 31 0 73 31 84 62 l12 33 100 -32 c245 -79 473 -115 733 -116 202 0 292
9 475 50 320 70 561 184 945 446 49 34 330 283 455 403 132 128 171 154 274
189 97 32 147 32 257 -5 83 -27 93 -29 124 -16 74 31 73 82 -4 211 -271 456
-632 861 -954 1070 -152 98 -328 173 -497 210 -87 19 -331 27 -465 15z m6
-411 c50 -16 105 -61 132 -112 l22 -42 0 -650 c0 -724 2 -698 -69 -769 -88
-88 -209 -87 -296 3 -26 27 -51 63 -58 87 -9 31 -12 203 -12 681 l0 639 26 52
c48 97 151 142 255 111z"/>
<path d="M8455 3259 c-147 -19 -376 -111 -532 -211 -308 -200 -520 -506 -500
-723 16 -165 126 -270 315 -297 376 -55 967 285 1158 667 178 356 -28 620
-441 564z"/>
<path d="M1251 3049 c-186 -36 -256 -185 -166 -357 125 -242 579 -513 952
-569 176 -26 301 1 370 81 98 111 60 260 -112 431 -267 267 -772 468 -1044
414z"/>
<path d="M3001 2690 c-159 -43 -298 -138 -341 -232 -44 -96 -16 -210 67 -273
77 -59 158 -80 303 -79 145 0 214 16 335 74 143 69 218 164 219 276 1 82 -37
145 -114 192 -80 48 -111 54 -260 58 -111 3 -148 0 -209 -16z"/>
<path d="M4355 2625 c-34 -33 -34 -93 -1 -132 41 -49 195 -153 302 -204 125
-61 229 -88 361 -96 l103 -6 174 -221 c190 -242 199 -251 238 -261 35 -9 95
20 112 54 7 14 62 190 121 391 118 403 123 432 70 477 -47 41 -88 32 -200 -42
-121 -81 -234 -136 -351 -171 -113 -34 -290 -39 -394 -11 -100 27 -235 96
-340 175 -79 60 -101 72 -133 72 -27 0 -45 -7 -62 -25z m1207 -453 l-48 -162
-86 109 -86 108 82 32 c44 17 104 42 131 55 28 13 51 22 52 21 2 -1 -19 -74
-45 -163z"/>
<path d="M3633 2190 c-121 -26 -176 -107 -139 -205 66 -172 471 -271 607 -148
65 58 65 144 2 214 -39 43 -165 109 -244 128 -68 16 -178 21 -226 11z"/>
<path d="M2638 2055 c-192 -49 -282 -178 -217 -313 86 -176 500 -213 673 -61
80 71 96 167 42 250 -32 47 -83 82 -162 110 -77 28 -253 35 -336 14z"/>
</g>
</svg>
